<svg viewBox="0 0 120 120" xmlns="http://www.w3.org/2000/svg">
  <!-- Crown -->
  <circle cx="60" cy="60" r="60" fill="#fef3c7"/>
  <ellipse cx="27" cy="93" rx="8" ry="22" fill="#1a1a2e" transform="rotate(-22 27 93)"/>
  <ellipse cx="57" cy="86" rx="27" ry="21" fill="#1a1a2e"/>
  <ellipse cx="59" cy="89" rx="16" ry="13" fill="#e8edf3"/>
  <ellipse cx="45" cy="76" rx="12" ry="7" fill="#e8edf3" transform="rotate(-15 45 76)"/>
  <circle cx="67" cy="48" r="22" fill="#1a1a2e"/>
  <!-- Crown (drawn before head elements so gems show on top) -->
  <path d="M49,30 L52,14 L60,24 L67,10 L74,24 L82,14 L85,30 Z" fill="#fbbf24"/>
  <rect x="49" y="28" width="36" height="9" rx="2" fill="#f59e0b"/>
  <circle cx="60" cy="22" r="2.5" fill="#ef4444"/>
  <circle cx="67" cy="17" r="3" fill="#ef4444"/>
  <circle cx="74" cy="22" r="2.5" fill="#60a5fa"/>
  <circle cx="75" cy="41" r="7.5" fill="white"/>
  <circle cx="77" cy="43" r="4.5" fill="#1a1a2e"/>
  <circle cx="79" cy="40" r="1.8" fill="white"/>
  <polygon points="89,46 102,50 89,54" fill="#f59e0b"/>
</svg>
