<svg viewBox="0 0 120 120" xmlns="http://www.w3.org/2000/svg">
  <!-- Pirate -->
  <circle cx="60" cy="60" r="60" fill="#ccfbf1"/>
  <ellipse cx="27" cy="93" rx="8" ry="22" fill="#1a1a2e" transform="rotate(-22 27 93)"/>
  <ellipse cx="57" cy="86" rx="27" ry="21" fill="#1a1a2e"/>
  <ellipse cx="59" cy="89" rx="16" ry="13" fill="#e8edf3"/>
  <ellipse cx="45" cy="76" rx="12" ry="7" fill="#e8edf3" transform="rotate(-15 45 76)"/>
  <circle cx="67" cy="48" r="22" fill="#1a1a2e"/>
  <circle cx="75" cy="41" r="7.5" fill="white"/>
  <circle cx="77" cy="43" r="4.5" fill="#1a1a2e"/>
  <circle cx="79" cy="40" r="1.8" fill="white"/>
  <polygon points="89,46 102,50 89,54" fill="#f59e0b"/>
  <!-- Eye patch strap -->
  <path d="M64,40 Q67,33 75,31 Q83,33 87,40" stroke="#78350f" stroke-width="3" fill="none"/>
  <!-- Eye patch -->
  <ellipse cx="75" cy="42" rx="12" ry="9" fill="#92400e"/>
  <ellipse cx="75" cy="42" rx="12" ry="9" fill="none" stroke="#d97706" stroke-width="2"/>
  <!-- Skull on patch -->
  <circle cx="75" cy="41" r="4" fill="#fef3c7"/>
  <circle cx="73.5" cy="40" r="1.3" fill="#92400e"/>
  <circle cx="76.5" cy="40" r="1.3" fill="#92400e"/>
  <path d="M73,43 L77,43" stroke="#92400e" stroke-width="1.5"/>
</svg>
