<svg viewBox="0 0 120 120" xmlns="http://www.w3.org/2000/svg">
  <!-- Party Hat -->
  <circle cx="60" cy="60" r="60" fill="#fce7f3"/>
  <ellipse cx="27" cy="93" rx="8" ry="22" fill="#1a1a2e" transform="rotate(-22 27 93)"/>
  <ellipse cx="57" cy="86" rx="27" ry="21" fill="#1a1a2e"/>
  <ellipse cx="59" cy="89" rx="16" ry="13" fill="#e8edf3"/>
  <ellipse cx="45" cy="76" rx="12" ry="7" fill="#e8edf3" transform="rotate(-15 45 76)"/>
  <circle cx="67" cy="48" r="22" fill="#1a1a2e"/>
  <!-- Party hat -->
  <polygon points="50,30 72,4 90,32" fill="#a855f7"/>
  <line x1="55" y1="30" x2="74" y2="7" stroke="#f9a8d4" stroke-width="3"/>
  <line x1="64" y1="31" x2="76" y2="7" stroke="#f9a8d4" stroke-width="2"/>
  <ellipse cx="70" cy="32" rx="20" ry="5" fill="#e879f9"/>
  <!-- Pompom -->
  <circle cx="72" cy="4" r="6" fill="#fbbf24"/>
  <circle cx="72" cy="4" r="4" fill="#fde68a"/>
  <circle cx="75" cy="41" r="7.5" fill="white"/>
  <circle cx="77" cy="43" r="4.5" fill="#1a1a2e"/>
  <circle cx="79" cy="40" r="1.8" fill="white"/>
  <polygon points="89,46 102,50 89,54" fill="#f59e0b"/>
</svg>
