<svg viewBox="0 0 120 120" xmlns="http://www.w3.org/2000/svg">
  <!-- Sleepy -->
  <circle cx="60" cy="60" r="60" fill="#e0f2fe"/>
  <ellipse cx="27" cy="93" rx="8" ry="22" fill="#1a1a2e" transform="rotate(-22 27 93)"/>
  <ellipse cx="57" cy="86" rx="27" ry="21" fill="#1a1a2e"/>
  <ellipse cx="59" cy="89" rx="16" ry="13" fill="#e8edf3"/>
  <ellipse cx="45" cy="76" rx="12" ry="7" fill="#e8edf3" transform="rotate(-15 45 76)"/>
  <circle cx="67" cy="48" r="22" fill="#1a1a2e"/>
  <!-- Eye (half-open) -->
  <circle cx="75" cy="41" r="7.5" fill="white"/>
  <circle cx="77" cy="44" r="4.5" fill="#1a1a2e"/>
  <circle cx="79" cy="41" r="1.8" fill="white"/>
  <!-- Heavy drooping eyelid -->
  <path d="M67.5,41 Q75,36.5 82.5,41 L82.5,43 Q75,39 67.5,43 Z" fill="#1a1a2e"/>
  <polygon points="89,46 102,50 89,54" fill="#f59e0b"/>
  <!-- Floating Z's -->
  <text x="92" y="30" font-size="13" fill="#7dd3fc" font-family="Georgia,serif" font-weight="bold" font-style="italic">z</text>
  <text x="100" y="20" font-size="10" fill="#7dd3fc" font-family="Georgia,serif" font-weight="bold" font-style="italic">z</text>
  <text x="106" y="12" font-size="8" fill="#7dd3fc" font-family="Georgia,serif" font-weight="bold" font-style="italic">z</text>
</svg>
